<?xml version="1.0" ?><!DOCTYPE svg  PUBLIC '-//W3C//DTD SVG 1.1//EN'  'http://www.w3.org/Graphics/SVG/1.1/DTD/svg11.dtd'><svg enable-background="new 0 0 64 64" height="64px" id="Layer_1" version="1.1" viewBox="0 0 64 64" width="64px" xml:space="preserve" xmlns="http://www.w3.org/2000/svg" xmlns:xlink="http://www.w3.org/1999/xlink"><g id="financial_planning"><g id="calendar"><g><rect fill="#B3EBF2" height="5" width="52" x="5" y="51"/></g><g><g><rect fill="#00BCD4" height="1" width="52" x="5" y="56"/></g></g><g><g><rect fill="#00BCD4" height="1" width="52" x="5" y="54"/></g></g><g><g><rect fill="#26C6DA" height="1" width="52" x="5" y="52"/></g></g><g><g><rect fill="#4DD0E1" height="11" width="11" x="5" y="40"/></g></g><g><g><polygon fill="#80DEEA" points="5,20 5,40 16,51 57,51 57,20     "/></g></g><g><g><rect fill="#FF5722" height="4" width="4" x="50" y="37"/></g><g><rect fill="#FF5722" height="4" width="4" x="50" y="30"/></g><g><rect fill="#FF5722" height="4" width="4" x="50" y="23"/></g></g><g><g><rect fill="#607D8B" height="4" width="4" x="36" y="44"/></g><g><rect fill="#607D8B" height="4" width="4" x="29" y="44"/></g><g><rect fill="#607D8B" height="4" width="4" x="22" y="44"/></g><g><rect fill="#607D8B" height="4" width="4" x="15" y="44"/></g><g><rect fill="#607D8B" height="4" width="4" x="36" y="37"/></g><g><rect fill="#607D8B" height="4" width="4" x="29" y="37"/></g><g><rect fill="#607D8B" height="4" width="4" x="22" y="37"/></g><g><rect fill="#607D8B" height="4" width="4" x="15" y="37"/></g><g><rect fill="#607D8B" height="4" width="4" x="8" y="37"/></g><g><rect fill="#607D8B" height="4" width="4" x="43" y="30"/></g><g><rect fill="#607D8B" height="4" width="4" x="36" y="30"/></g><g><rect fill="#607D8B" height="4" width="4" x="29" y="30"/></g><g><rect fill="#607D8B" height="4" width="4" x="22" y="30"/></g><g><rect fill="#607D8B" height="4" width="4" x="15" y="30"/></g><g><rect fill="#607D8B" height="4" width="4" x="8" y="30"/></g><g><rect fill="#607D8B" height="4" width="4" x="43" y="23"/></g><g><rect fill="#607D8B" height="4" width="4" x="36" y="23"/></g><g><rect fill="#607D8B" height="4" width="4" x="29" y="23"/></g><g><rect fill="#607D8B" height="4" width="4" x="22" y="23"/></g><g><rect fill="#607D8B" height="4" width="4" x="15" y="23"/></g><g><rect fill="#607D8B" height="4" width="4" x="43" y="37"/></g><g><rect fill="#607D8B" height="4" width="4" x="43" y="44"/></g></g><g><g opacity="0.1"><polygon fill="#37474F" points="27,51 16,51 16,40     "/></g></g><g><g><polygon fill="#FFFFFF" points="5,40 16,40 16,51     "/></g></g><g><g><path d="M4,8v11h54V8H4z M12,15c0,0.55-0.45,1-1,1H9c-0.55,0-1-0.45-1-1v-2c0-0.55,0.45-1,1-1h2      c0.55,0,1,0.45,1,1V15z M19,15c0,0.55-0.45,1-1,1h-2c-0.55,0-1-0.45-1-1v-2c0-0.55,0.45-1,1-1h2c0.55,0,1,0.45,1,1V15z M26,15      c0,0.55-0.45,1-1,1h-2c-0.55,0-1-0.45-1-1v-2c0-0.55,0.45-1,1-1h2c0.55,0,1,0.45,1,1V15z M33,15c0,0.55-0.45,1-1,1h-2      c-0.55,0-1-0.45-1-1v-2c0-0.55,0.45-1,1-1h2c0.55,0,1,0.45,1,1V15z M40,15c0,0.55-0.45,1-1,1h-2c-0.55,0-1-0.45-1-1v-2      c0-0.55,0.45-1,1-1h2c0.55,0,1,0.45,1,1V15z M47,15c0,0.55-0.45,1-1,1h-2c-0.55,0-1-0.45-1-1v-2c0-0.55,0.45-1,1-1h2      c0.55,0,1,0.45,1,1V15z M54,15c0,0.55-0.45,1-1,1h-2c-0.55,0-1-0.45-1-1v-2c0-0.55,0.45-1,1-1h2c0.55,0,1,0.45,1,1V15z" fill="#FF5722"/></g></g><g><g><g><g><path d="M52,15c-0.553,0-1-0.447-1-1V4c0-0.553,0.447-1,1-1s1,0.447,1,1v10C53,14.553,52.553,15,52,15z" fill="#546E7A"/></g></g><g><g><path d="M52,15c-0.553,0-1-0.447-1-1V4c0-0.553,0.447-1,1-1V15z" fill="#607D8B"/></g></g></g><g><g><g><path d="M45,15c-0.553,0-1-0.447-1-1V4c0-0.553,0.447-1,1-1s1,0.447,1,1v10C46,14.553,45.553,15,45,15z" fill="#546E7A"/></g></g><g><g><path d="M45,15c-0.553,0-1-0.447-1-1V4c0-0.553,0.447-1,1-1V15z" fill="#607D8B"/></g></g></g><g><g><g><path d="M38,15c-0.553,0-1-0.447-1-1V4c0-0.553,0.447-1,1-1s1,0.447,1,1v10C39,14.553,38.553,15,38,15z" fill="#546E7A"/></g></g><g><g><path d="M38,15c-0.553,0-1-0.447-1-1V4c0-0.553,0.447-1,1-1V15z" fill="#607D8B"/></g></g></g><g><g><g><path d="M31,15c-0.553,0-1-0.447-1-1V4c0-0.553,0.447-1,1-1s1,0.447,1,1v10C32,14.553,31.553,15,31,15z" fill="#546E7A"/></g></g><g><g><path d="M31,15c-0.553,0-1-0.447-1-1V4c0-0.553,0.447-1,1-1V15z" fill="#607D8B"/></g></g></g><g><g><g><path d="M24,15c-0.553,0-1-0.447-1-1V4c0-0.553,0.447-1,1-1s1,0.447,1,1v10C25,14.553,24.553,15,24,15z" fill="#546E7A"/></g></g><g><g><path d="M24,15c-0.553,0-1-0.447-1-1V4c0-0.553,0.447-1,1-1V15z" fill="#607D8B"/></g></g></g><g><g><g><path d="M17,15c-0.553,0-1-0.447-1-1V4c0-0.553,0.447-1,1-1s1,0.447,1,1v10C18,14.553,17.553,15,17,15z" fill="#546E7A"/></g></g><g><g><path d="M17,15c-0.553,0-1-0.447-1-1V4c0-0.553,0.447-1,1-1V15z" fill="#607D8B"/></g></g></g><g><g><g><path d="M10,15c-0.553,0-1-0.447-1-1V4c0-0.553,0.447-1,1-1s1,0.447,1,1v10C11,14.553,10.553,15,10,15z" fill="#546E7A"/></g></g><g><g><path d="M10,15c-0.553,0-1-0.447-1-1V4c0-0.553,0.447-1,1-1V15z" fill="#607D8B"/></g></g></g></g><g><rect fill="#4DD0E1" height="1" width="52" x="5" y="20"/></g></g><g><g><path d="M48,60.5c-6.893,0-12.5-5.607-12.5-12.5S41.107,35.5,48,35.5S60.5,41.107,60.5,48S54.893,60.5,48,60.5z" fill="#FFD740"/></g><g><path d="M48,36c6.617,0,12,5.383,12,12s-5.383,12-12,12s-12-5.383-12-12S41.383,36,48,36 M48,35     c-7.182,0-13,5.818-13,13s5.818,13,13,13s13-5.818,13-13S55.182,35,48,35L48,35z" fill="#455A64"/></g></g><g><path d="M46.083,54.497l-5.79-5.79c-0.391-0.391-0.391-1.023,0-1.414s1.023-0.391,1.414,0l4.21,4.21l7.302-9.128    c0.347-0.429,0.974-0.501,1.406-0.156c0.431,0.346,0.501,0.975,0.156,1.406L46.083,54.497z" fill="#37474F"/></g></g></svg>